<svg width="490" height="251" viewBox="0 0 490 251" fill="none" xmlns="http://www.w3.org/2000/svg">
<path d="M175.5 193.2H163.2V190H191.5V193.2H179.2V225H175.5V193.2ZM199.377 203.85C200.211 202.083 201.444 200.75 203.077 199.85C204.744 198.95 206.794 198.5 209.227 198.5V201.95L208.377 201.9C205.611 201.9 203.444 202.75 201.877 204.45C200.311 206.15 199.527 208.533 199.527 211.6V225H195.977V198.7H199.377V203.85ZM224.806 198.5C228.24 198.5 230.873 199.367 232.706 201.1C234.54 202.8 235.456 205.333 235.456 208.7V225H232.056V220.9C231.256 222.267 230.073 223.333 228.506 224.1C226.973 224.867 225.14 225.25 223.006 225.25C220.073 225.25 217.74 224.55 216.006 223.15C214.273 221.75 213.406 219.9 213.406 217.6C213.406 215.367 214.206 213.567 215.806 212.2C217.44 210.833 220.023 210.15 223.556 210.15H231.906V208.55C231.906 206.283 231.273 204.567 230.006 203.4C228.74 202.2 226.89 201.6 224.456 201.6C222.79 201.6 221.19 201.883 219.656 202.45C218.123 202.983 216.806 203.733 215.706 204.7L214.106 202.05C215.44 200.917 217.04 200.05 218.906 199.45C220.773 198.817 222.74 198.5 224.806 198.5ZM223.556 222.45C225.556 222.45 227.273 222 228.706 221.1C230.14 220.167 231.206 218.833 231.906 217.1V212.8H223.656C219.156 212.8 216.906 214.367 216.906 217.5C216.906 219.033 217.49 220.25 218.656 221.15C219.823 222.017 221.456 222.45 223.556 222.45ZM266.71 198.7L255.01 225H251.36L239.71 198.7H243.41L253.26 221.1L263.21 198.7H266.71ZM293.877 212.95H271.877C272.077 215.683 273.127 217.9 275.027 219.6C276.927 221.267 279.327 222.1 282.227 222.1C283.861 222.1 285.361 221.817 286.727 221.25C288.094 220.65 289.277 219.783 290.277 218.65L292.277 220.95C291.111 222.35 289.644 223.417 287.877 224.15C286.144 224.883 284.227 225.25 282.127 225.25C279.427 225.25 277.027 224.683 274.927 223.55C272.861 222.383 271.244 220.783 270.077 218.75C268.911 216.717 268.327 214.417 268.327 211.85C268.327 209.283 268.877 206.983 269.977 204.95C271.111 202.917 272.644 201.333 274.577 200.2C276.544 199.067 278.744 198.5 281.177 198.5C283.611 198.5 285.794 199.067 287.727 200.2C289.661 201.333 291.177 202.917 292.277 204.95C293.377 206.95 293.927 209.25 293.927 211.85L293.877 212.95ZM281.177 201.55C278.644 201.55 276.511 202.367 274.777 204C273.077 205.6 272.111 207.7 271.877 210.3H290.527C290.294 207.7 289.311 205.6 287.577 204C285.877 202.367 283.744 201.55 281.177 201.55ZM301.153 187.9H304.703V225H301.153V187.9ZM360.467 198.5C363.767 198.5 366.35 199.45 368.217 201.35C370.117 203.25 371.067 206.05 371.067 209.75V225H367.517V210.1C367.517 207.367 366.85 205.283 365.517 203.85C364.217 202.417 362.367 201.7 359.967 201.7C357.233 201.7 355.083 202.55 353.517 204.25C351.95 205.917 351.167 208.233 351.167 211.2V225H347.617V210.1C347.617 207.367 346.95 205.283 345.617 203.85C344.317 202.417 342.45 201.7 340.017 201.7C337.317 201.7 335.167 202.55 333.567 204.25C332 205.917 331.217 208.233 331.217 211.2V225H327.667V198.7H331.067V203.5C332 201.9 333.3 200.667 334.967 199.8C336.633 198.933 338.55 198.5 340.717 198.5C342.917 198.5 344.817 198.967 346.417 199.9C348.05 200.833 349.267 202.217 350.067 204.05C351.033 202.317 352.417 200.967 354.217 200C356.05 199 358.133 198.5 360.467 198.5ZM391.542 225.25C389.008 225.25 386.725 224.683 384.692 223.55C382.658 222.383 381.058 220.783 379.892 218.75C378.725 216.717 378.142 214.417 378.142 211.85C378.142 209.283 378.725 206.983 379.892 204.95C381.058 202.917 382.658 201.333 384.692 200.2C386.725 199.067 389.008 198.5 391.542 198.5C394.075 198.5 396.358 199.067 398.392 200.2C400.425 201.333 402.008 202.917 403.142 204.95C404.308 206.983 404.892 209.283 404.892 211.85C404.892 214.417 404.308 216.717 403.142 218.75C402.008 220.783 400.425 222.383 398.392 223.55C396.358 224.683 394.075 225.25 391.542 225.25ZM391.542 222.1C393.408 222.1 395.075 221.683 396.542 220.85C398.042 219.983 399.208 218.767 400.042 217.2C400.875 215.633 401.292 213.85 401.292 211.85C401.292 209.85 400.875 208.067 400.042 206.5C399.208 204.933 398.042 203.733 396.542 202.9C395.075 202.033 393.408 201.6 391.542 201.6C389.675 201.6 387.992 202.033 386.492 202.9C385.025 203.733 383.858 204.933 382.992 206.5C382.158 208.067 381.742 209.85 381.742 211.85C381.742 213.85 382.158 215.633 382.992 217.2C383.858 218.767 385.025 219.983 386.492 220.85C387.992 221.683 389.675 222.1 391.542 222.1ZM415.539 203.85C416.373 202.083 417.606 200.75 419.239 199.85C420.906 198.95 422.956 198.5 425.389 198.5V201.95L424.539 201.9C421.773 201.9 419.606 202.75 418.039 204.45C416.473 206.15 415.689 208.533 415.689 211.6V225H412.139V198.7H415.539V203.85ZM454.473 212.95H432.473C432.673 215.683 433.723 217.9 435.623 219.6C437.523 221.267 439.923 222.1 442.823 222.1C444.456 222.1 445.956 221.817 447.323 221.25C448.69 220.65 449.873 219.783 450.873 218.65L452.873 220.95C451.706 222.35 450.24 223.417 448.473 224.15C446.74 224.883 444.823 225.25 442.723 225.25C440.023 225.25 437.623 224.683 435.523 223.55C433.456 222.383 431.84 220.783 430.673 218.75C429.506 216.717 428.923 214.417 428.923 211.85C428.923 209.283 429.473 206.983 430.573 204.95C431.706 202.917 433.24 201.333 435.173 200.2C437.14 199.067 439.34 198.5 441.773 198.5C444.206 198.5 446.39 199.067 448.323 200.2C450.256 201.333 451.773 202.917 452.873 204.95C453.973 206.95 454.523 209.25 454.523 211.85L454.473 212.95ZM441.773 201.55C439.24 201.55 437.106 202.367 435.373 204C433.673 205.6 432.706 207.7 432.473 210.3H451.123C450.89 207.7 449.906 205.6 448.173 204C446.473 202.367 444.34 201.55 441.773 201.55Z" fill="#CCCCCC"/>
<path d="M72 118.9L71.85 115.15L71.55 111.4C73.35 111.2 75.2 111.1 77.1 111.1C81.7 111.1 84.9 112.1 86.7 114.1C88.5 116 89.4 119.3 89.4 124C89.4 154.5 84.25 178.3 73.95 195.4C70.35 201.3 65.65 206.1 59.85 209.8C54.15 213.5 47.65 215.35 40.35 215.35C30.45 215.35 23 212.65 18 207.25C13 201.95 10.5 196 10.5 189.4C10.5 182.9 11.95 177.75 14.85 173.95C17.85 170.25 21.55 168.4 25.95 168.4C28.75 168.4 31.35 169.25 33.75 170.95C29.45 176.85 27.3 182.7 27.3 188.5C27.3 200.6 32.15 206.65 41.85 206.65C51.55 206.65 58.9 200.95 63.9 189.55C68.9 178.15 71.85 162.25 72.75 141.85C69.15 148.35 64.65 153.3 59.25 156.7C53.85 160 48.2 161.65 42.3 161.65C32.9 161.65 24.85 157.75 18.15 149.95C11.55 142.15 8.25 131.3 8.25 117.4C8.25 98.2 12.9 81.6 22.2 67.6C26.8 60.7 32.7 55.25 39.9 51.25C47.2 47.15 55.5 45.1 64.8 45.1C74.1 45.1 81.15 47.65 85.95 52.75C90.85 57.75 93.3 63.85 93.3 71.05C93.3 78.15 91.2 83.75 87 87.85C82.9 91.85 78 93.85 72.3 93.85C64 93.85 57.75 90.95 53.55 85.15C56.25 85.85 58.8 86.2 61.2 86.2C66.9 86.2 71.35 84.5 74.55 81.1C77.85 77.7 79.5 73.8 79.5 69.4C79.5 64.9 78 61.2 75 58.3C72 55.3 67.75 53.8 62.25 53.8C54.95 53.8 48.3 57.15 42.3 63.85C36.4 70.55 31.9 78.65 28.8 88.15C25.8 97.65 24.3 107.6 24.3 118C24.3 128.3 26.5 136.4 30.9 142.3C35.4 148.2 40.9 151.15 47.4 151.15C53.9 151.15 59.6 148.25 64.5 142.45C69.5 136.55 72 128.7 72 118.9ZM168.979 79.15C177.579 79.15 181.879 83.6 181.879 92.5C181.879 94.1 180.929 101.15 179.029 113.65C177.129 126.05 176.179 136.7 176.179 145.6C176.179 154.5 177.129 162.35 179.029 169.15C172.929 166.75 168.679 163.35 166.279 158.95C163.979 154.55 162.829 149.1 162.829 142.6C162.829 140.1 163.379 134.45 164.479 125.65C161.479 137.05 156.829 146.65 150.529 154.45C144.229 162.15 138.379 166 132.979 166C121.579 166 115.879 157.7 115.879 141.1C115.879 135.6 116.679 127.95 118.279 118.15C119.979 108.25 120.829 100.75 120.829 95.65C120.829 90.55 120.129 85.4 118.729 80.2C125.129 80.2 129.929 81.3 133.129 83.5C136.329 85.7 137.929 89.95 137.929 96.25C137.929 99.65 136.879 106.65 134.779 117.25C132.679 127.85 131.629 135.7 131.629 140.8C131.629 148.2 133.929 151.9 138.529 151.9C142.329 151.9 146.279 148.95 150.379 143.05C154.579 137.05 158.079 129.3 160.879 119.8C163.679 110.3 165.079 100.9 165.079 91.6C165.079 87.4 164.779 83.35 164.179 79.45C166.379 79.25 167.979 79.15 168.979 79.15ZM224.545 168.25C218.845 166.25 214.845 163.2 212.545 159.1C210.345 154.9 209.245 149.85 209.245 143.95C209.245 138.05 210.045 129.6 211.645 118.6C213.245 107.6 214.045 99.05 214.045 92.95C214.045 86.85 213.745 82.15 213.145 78.85C214.945 78.65 216.395 78.55 217.495 78.55C221.995 78.55 225.245 79.55 227.245 81.55C229.245 83.55 230.245 86.85 230.245 91.45C230.245 92.95 228.995 100.85 226.495 115.15C224.095 129.35 222.845 141.1 222.745 150.4C222.745 159.6 223.345 165.55 224.545 168.25ZM226.795 63.7C218.395 63.7 214.195 60.85 214.195 55.15C214.195 53.15 214.945 50.35 216.445 46.75C218.645 46.35 220.545 46.15 222.145 46.15C230.545 46.15 234.745 49 234.745 54.7C234.745 56.7 233.995 59.5 232.495 63.1C230.295 63.5 228.395 63.7 226.795 63.7ZM265.989 135.7C265.989 141.4 267.089 146.05 269.289 149.65C271.489 153.25 274.889 155.05 279.489 155.05C284.189 155.05 288.439 153 292.239 148.9C296.139 144.7 299.239 139.1 301.539 132.1C303.939 125 305.989 117.5 307.689 109.6C309.489 101.6 310.789 93.1 311.589 84.1C313.089 67.4 313.839 54.15 313.839 44.35C313.839 34.55 313.439 27.25 312.639 22.45C322.939 25.75 328.089 36.1 328.089 53.5C328.089 60.6 326.389 74.9 322.989 96.4C319.689 117.9 318.039 133.6 318.039 143.5C318.039 153.4 318.489 161.8 319.389 168.7C313.689 166.8 309.789 163.4 307.689 158.5C305.589 153.6 304.539 147.35 304.539 139.75C301.439 148.35 296.839 155.15 290.739 160.15C284.639 165.15 278.289 167.65 271.689 167.65C265.189 167.65 259.889 165.15 255.789 160.15C251.789 155.05 249.789 147.6 249.789 137.8C249.789 121.5 254.039 108.1 262.539 97.6C271.139 87.1 281.789 81.85 294.489 81.85C298.089 81.85 301.939 82.4 306.039 83.5C299.239 84.6 293.139 87.1 287.739 91C282.339 94.8 278.139 99.3 275.139 104.5C269.039 115.1 265.989 125.5 265.989 135.7ZM384.52 87.25C378.52 87.25 373.42 90.7 369.22 97.6C365.12 104.5 362.37 112.6 360.97 121.9H365.17C370.47 121.9 375.07 121.15 378.97 119.65C382.87 118.15 385.87 116.2 387.97 113.8C391.97 109.2 393.97 104 393.97 98.2C393.97 94.9 393.17 92.25 391.57 90.25C390.07 88.25 387.72 87.25 384.52 87.25ZM405.67 148C401.07 155.5 396.02 160.75 390.52 163.75C385.02 166.75 378.62 168.25 371.32 168.25C364.12 168.25 357.82 165.05 352.42 158.65C347.02 152.25 344.32 143.25 344.32 131.65C344.32 118.45 347.87 106.65 354.97 96.25C358.47 91.25 363.02 87.2 368.62 84.1C374.32 81 380.57 79.45 387.37 79.45C402.37 79.45 409.87 86.7 409.87 101.2C409.87 109.9 406.47 116.75 399.67 121.75C392.97 126.65 385.17 129.1 376.27 129.1C370.37 129.1 365.07 128.55 360.37 127.45C360.27 128.45 360.22 130 360.22 132.1C360.22 149.8 365.47 158.65 375.97 158.65C385.87 158.65 393.92 153.75 400.12 143.95C403.82 144.45 405.67 145.8 405.67 148Z" fill="white"/>
</svg>
